<mxfile host="app.diagrams.net" modified="2023-02-11T10:11:44.168Z" agent="5.0 (Windows NT 10.0; Win64; x64) AppleWebKit/537.36 (KHTML, like Gecko) Chrome/108.0.0.0 Safari/537.36" etag="KBi53lfcp6NGL86l98Sk" version="20.8.19" type="github" pages="2">
  <diagram name="Page-1" id="9rlAnr0whuJfNL5q-pFU">
    <mxGraphModel dx="1434" dy="764" grid="0" gridSize="10" guides="1" tooltips="1" connect="1" arrows="1" fold="1" page="0" pageScale="1" pageWidth="2500" pageHeight="1600" math="0" shadow="0">
      <root>
        <mxCell id="0" />
        <mxCell id="1" parent="0" />
        <mxCell id="jw1D5i-bptpZqYjqfrqc-1" value="&lt;font style=&quot;font-size: 14px;&quot;&gt;定时任务/应用程序&lt;/font&gt;" style="shape=umlLifeline;perimeter=lifelinePerimeter;whiteSpace=wrap;html=1;container=0;dropTarget=0;collapsible=0;recursiveResize=0;outlineConnect=0;portConstraint=eastwest;newEdgeStyle={&quot;edgeStyle&quot;:&quot;elbowEdgeStyle&quot;,&quot;elbow&quot;:&quot;vertical&quot;,&quot;curved&quot;:0,&quot;rounded&quot;:0};fillColor=#b1ddf0;strokeColor=#10739e;" parent="1" vertex="1">
          <mxGeometry x="305" y="160" width="100" height="899" as="geometry" />
        </mxCell>
        <mxCell id="jw1D5i-bptpZqYjqfrqc-2" value="" style="html=1;points=[];perimeter=orthogonalPerimeter;outlineConnect=0;targetShapes=umlLifeline;portConstraint=eastwest;newEdgeStyle={&quot;edgeStyle&quot;:&quot;elbowEdgeStyle&quot;,&quot;elbow&quot;:&quot;vertical&quot;,&quot;curved&quot;:0,&quot;rounded&quot;:0};fillColor=#b1ddf0;strokeColor=#10739e;" parent="jw1D5i-bptpZqYjqfrqc-1" vertex="1">
          <mxGeometry x="36" y="70" width="28" height="120" as="geometry" />
        </mxCell>
        <mxCell id="jw1D5i-bptpZqYjqfrqc-7" value="&lt;font style=&quot;font-size: 12px;&quot;&gt;触发事件&lt;/font&gt;" style="html=1;verticalAlign=bottom;endArrow=block;edgeStyle=elbowEdgeStyle;elbow=vertical;curved=0;rounded=0;" parent="1" source="jw1D5i-bptpZqYjqfrqc-2" target="jw1D5i-bptpZqYjqfrqc-14" edge="1">
          <mxGeometry relative="1" as="geometry">
            <mxPoint x="460" y="250" as="sourcePoint" />
            <Array as="points">
              <mxPoint x="445" y="240" />
            </Array>
            <mxPoint x="530" y="240" as="targetPoint" />
          </mxGeometry>
        </mxCell>
        <mxCell id="jw1D5i-bptpZqYjqfrqc-11" value="&lt;font style=&quot;font-size: 14px;&quot;&gt;Redis&lt;/font&gt;" style="shape=umlLifeline;perimeter=lifelinePerimeter;whiteSpace=wrap;html=1;container=0;dropTarget=0;collapsible=0;recursiveResize=0;outlineConnect=0;portConstraint=eastwest;newEdgeStyle={&quot;edgeStyle&quot;:&quot;elbowEdgeStyle&quot;,&quot;elbow&quot;:&quot;vertical&quot;,&quot;curved&quot;:0,&quot;rounded&quot;:0};fillColor=#fad9d5;strokeColor=#ae4132;" parent="1" vertex="1">
          <mxGeometry x="885" y="160" width="100" height="896" as="geometry" />
        </mxCell>
        <mxCell id="jw1D5i-bptpZqYjqfrqc-12" value="" style="html=1;points=[];perimeter=orthogonalPerimeter;outlineConnect=0;targetShapes=umlLifeline;portConstraint=eastwest;newEdgeStyle={&quot;edgeStyle&quot;:&quot;elbowEdgeStyle&quot;,&quot;elbow&quot;:&quot;vertical&quot;,&quot;curved&quot;:0,&quot;rounded&quot;:0};fillColor=#fad9d5;strokeColor=#ae4132;" parent="jw1D5i-bptpZqYjqfrqc-11" vertex="1">
          <mxGeometry x="37.5" y="485" width="25" height="85" as="geometry" />
        </mxCell>
        <mxCell id="jw1D5i-bptpZqYjqfrqc-13" value="&lt;font style=&quot;font-size: 14px;&quot;&gt;materialCategory&lt;br&gt;Serive&lt;/font&gt;" style="shape=umlLifeline;perimeter=lifelinePerimeter;whiteSpace=wrap;html=1;container=0;dropTarget=0;collapsible=0;recursiveResize=0;outlineConnect=0;portConstraint=eastwest;newEdgeStyle={&quot;edgeStyle&quot;:&quot;elbowEdgeStyle&quot;,&quot;elbow&quot;:&quot;vertical&quot;,&quot;curved&quot;:0,&quot;rounded&quot;:0};fillColor=#fad7ac;strokeColor=#b46504;" parent="1" vertex="1">
          <mxGeometry x="490" y="160" width="100" height="897" as="geometry" />
        </mxCell>
        <mxCell id="jw1D5i-bptpZqYjqfrqc-14" value="" style="html=1;points=[];perimeter=orthogonalPerimeter;outlineConnect=0;targetShapes=umlLifeline;portConstraint=eastwest;newEdgeStyle={&quot;edgeStyle&quot;:&quot;elbowEdgeStyle&quot;,&quot;elbow&quot;:&quot;vertical&quot;,&quot;curved&quot;:0,&quot;rounded&quot;:0};fillColor=#fad7ac;strokeColor=#b46504;" parent="jw1D5i-bptpZqYjqfrqc-13" vertex="1">
          <mxGeometry x="32" y="70" width="32" height="274" as="geometry" />
        </mxCell>
        <mxCell id="4BBNZKaEhTjfxijUrDNG-5" value="" style="html=1;points=[];perimeter=orthogonalPerimeter;outlineConnect=0;targetShapes=umlLifeline;portConstraint=eastwest;newEdgeStyle={&quot;edgeStyle&quot;:&quot;elbowEdgeStyle&quot;,&quot;elbow&quot;:&quot;vertical&quot;,&quot;curved&quot;:0,&quot;rounded&quot;:0};fillColor=#fad7ac;strokeColor=#b46504;" vertex="1" parent="jw1D5i-bptpZqYjqfrqc-13">
          <mxGeometry x="34" y="379" width="32" height="89" as="geometry" />
        </mxCell>
        <mxCell id="4BBNZKaEhTjfxijUrDNG-6" value="" style="html=1;points=[];perimeter=orthogonalPerimeter;outlineConnect=0;targetShapes=umlLifeline;portConstraint=eastwest;newEdgeStyle={&quot;edgeStyle&quot;:&quot;elbowEdgeStyle&quot;,&quot;elbow&quot;:&quot;vertical&quot;,&quot;curved&quot;:0,&quot;rounded&quot;:0};fillColor=#fad7ac;strokeColor=#b46504;" vertex="1" parent="jw1D5i-bptpZqYjqfrqc-13">
          <mxGeometry x="32" y="495" width="32" height="187" as="geometry" />
        </mxCell>
        <mxCell id="jw1D5i-bptpZqYjqfrqc-15" value="&lt;font style=&quot;font-size: 14px;&quot;&gt;mysql&lt;/font&gt;" style="shape=umlLifeline;perimeter=lifelinePerimeter;whiteSpace=wrap;html=1;container=0;dropTarget=0;collapsible=0;recursiveResize=0;outlineConnect=0;portConstraint=eastwest;newEdgeStyle={&quot;edgeStyle&quot;:&quot;elbowEdgeStyle&quot;,&quot;elbow&quot;:&quot;vertical&quot;,&quot;curved&quot;:0,&quot;rounded&quot;:0};fillColor=#CC99FF;strokeColor=#9673a6;" parent="1" vertex="1">
          <mxGeometry x="1069" y="160" width="100" height="898" as="geometry" />
        </mxCell>
        <mxCell id="jw1D5i-bptpZqYjqfrqc-16" value="" style="html=1;points=[];perimeter=orthogonalPerimeter;outlineConnect=0;targetShapes=umlLifeline;portConstraint=eastwest;newEdgeStyle={&quot;edgeStyle&quot;:&quot;elbowEdgeStyle&quot;,&quot;elbow&quot;:&quot;vertical&quot;,&quot;curved&quot;:0,&quot;rounded&quot;:0};fillColor=#e1d5e7;strokeColor=#9673a6;" parent="jw1D5i-bptpZqYjqfrqc-15" vertex="1">
          <mxGeometry x="38" y="375" width="21" height="76" as="geometry" />
        </mxCell>
        <mxCell id="4BBNZKaEhTjfxijUrDNG-11" value="" style="html=1;points=[];perimeter=orthogonalPerimeter;outlineConnect=0;targetShapes=umlLifeline;portConstraint=eastwest;newEdgeStyle={&quot;edgeStyle&quot;:&quot;elbowEdgeStyle&quot;,&quot;elbow&quot;:&quot;vertical&quot;,&quot;curved&quot;:0,&quot;rounded&quot;:0};fillColor=#e1d5e7;strokeColor=#9673a6;" vertex="1" parent="jw1D5i-bptpZqYjqfrqc-15">
          <mxGeometry x="38" y="625" width="21" height="61" as="geometry" />
        </mxCell>
        <mxCell id="jw1D5i-bptpZqYjqfrqc-38" value="&lt;span style=&quot;font-size: 14px;&quot;&gt;&lt;font color=&quot;#000000&quot;&gt;中台&lt;/font&gt;&lt;/span&gt;" style="shape=umlLifeline;perimeter=lifelinePerimeter;whiteSpace=wrap;html=1;container=0;dropTarget=0;collapsible=0;recursiveResize=0;outlineConnect=0;portConstraint=eastwest;newEdgeStyle={&quot;edgeStyle&quot;:&quot;elbowEdgeStyle&quot;,&quot;elbow&quot;:&quot;vertical&quot;,&quot;curved&quot;:0,&quot;rounded&quot;:0};fillColor=#d5e8d4;strokeColor=#82b366;" parent="1" vertex="1">
          <mxGeometry x="690" y="160" width="100" height="899" as="geometry" />
        </mxCell>
        <mxCell id="jw1D5i-bptpZqYjqfrqc-39" value="" style="html=1;points=[];perimeter=orthogonalPerimeter;outlineConnect=0;targetShapes=umlLifeline;portConstraint=eastwest;newEdgeStyle={&quot;edgeStyle&quot;:&quot;elbowEdgeStyle&quot;,&quot;elbow&quot;:&quot;vertical&quot;,&quot;curved&quot;:0,&quot;rounded&quot;:0};fillColor=#d5e8d4;strokeColor=#82b366;" parent="jw1D5i-bptpZqYjqfrqc-38" vertex="1">
          <mxGeometry x="38" y="100" width="26" height="90" as="geometry" />
        </mxCell>
        <mxCell id="jw1D5i-bptpZqYjqfrqc-41" value="&lt;font style=&quot;font-size: 14px;&quot;&gt;分页请求&lt;/font&gt;" style="html=1;verticalAlign=bottom;endArrow=block;elbow=vertical;rounded=0;" parent="1" edge="1">
          <mxGeometry relative="1" as="geometry">
            <mxPoint x="558" y="273" as="sourcePoint" />
            <mxPoint x="730" y="270" as="targetPoint" />
          </mxGeometry>
        </mxCell>
        <mxCell id="jw1D5i-bptpZqYjqfrqc-42" value="&lt;font style=&quot;font-size: 14px;&quot;&gt;返回结果&lt;/font&gt;" style="html=1;verticalAlign=bottom;endArrow=open;dashed=1;endSize=8;elbow=vertical;rounded=0;" parent="1" edge="1">
          <mxGeometry relative="1" as="geometry">
            <mxPoint x="559" y="321" as="targetPoint" />
            <mxPoint x="721" y="319" as="sourcePoint" />
          </mxGeometry>
        </mxCell>
        <mxCell id="4BBNZKaEhTjfxijUrDNG-3" value="" style="endArrow=classic;html=1;rounded=0;edgeStyle=orthogonalEdgeStyle;" edge="1" parent="1" source="jw1D5i-bptpZqYjqfrqc-14">
          <mxGeometry width="50" height="50" relative="1" as="geometry">
            <mxPoint x="555" y="391" as="sourcePoint" />
            <mxPoint x="555" y="463" as="targetPoint" />
            <Array as="points">
              <mxPoint x="588" y="416" />
              <mxPoint x="588" y="463" />
            </Array>
          </mxGeometry>
        </mxCell>
        <mxCell id="4BBNZKaEhTjfxijUrDNG-4" value="&lt;font style=&quot;font-size: 14px;&quot;&gt;根据OpType拆分查询结果&lt;/font&gt;" style="edgeLabel;html=1;align=center;verticalAlign=middle;resizable=0;points=[];" vertex="1" connectable="0" parent="4BBNZKaEhTjfxijUrDNG-3">
          <mxGeometry x="-0.5263" y="3" relative="1" as="geometry">
            <mxPoint x="66" y="29" as="offset" />
          </mxGeometry>
        </mxCell>
        <mxCell id="4BBNZKaEhTjfxijUrDNG-8" value="" style="endArrow=classic;html=1;rounded=0;entryX=0.095;entryY=0.186;entryDx=0;entryDy=0;entryPerimeter=0;" edge="1" parent="1">
          <mxGeometry width="50" height="50" relative="1" as="geometry">
            <mxPoint x="556" y="570.0039999999999" as="sourcePoint" />
            <mxPoint x="1108.995" y="570.0039999999999" as="targetPoint" />
          </mxGeometry>
        </mxCell>
        <mxCell id="4BBNZKaEhTjfxijUrDNG-9" value="&lt;font style=&quot;font-size: 14px;&quot;&gt;opType为delete，删除数据&lt;/font&gt;" style="edgeLabel;html=1;align=center;verticalAlign=middle;resizable=0;points=[];" vertex="1" connectable="0" parent="4BBNZKaEhTjfxijUrDNG-8">
          <mxGeometry x="-0.6926" y="-1" relative="1" as="geometry">
            <mxPoint x="19" y="-10" as="offset" />
          </mxGeometry>
        </mxCell>
        <mxCell id="4BBNZKaEhTjfxijUrDNG-10" value="" style="endArrow=classic;html=1;rounded=0;startArrow=none;" edge="1" parent="1" source="jw1D5i-bptpZqYjqfrqc-12">
          <mxGeometry width="50" height="50" relative="1" as="geometry">
            <mxPoint x="556" y="666" as="sourcePoint" />
            <mxPoint x="921" y="666" as="targetPoint" />
            <Array as="points">
              <mxPoint x="832" y="666" />
            </Array>
          </mxGeometry>
        </mxCell>
        <mxCell id="4BBNZKaEhTjfxijUrDNG-14" value="" style="endArrow=classic;html=1;rounded=0;dashed=1;" edge="1" parent="1">
          <mxGeometry width="50" height="50" relative="1" as="geometry">
            <mxPoint x="919" y="702" as="sourcePoint" />
            <mxPoint x="553" y="704" as="targetPoint" />
          </mxGeometry>
        </mxCell>
        <mxCell id="4BBNZKaEhTjfxijUrDNG-15" value="&lt;font style=&quot;font-size: 14px;&quot;&gt;返回结果&lt;/font&gt;" style="edgeLabel;html=1;align=center;verticalAlign=middle;resizable=0;points=[];" vertex="1" connectable="0" parent="4BBNZKaEhTjfxijUrDNG-14">
          <mxGeometry x="0.6439" y="1" relative="1" as="geometry">
            <mxPoint as="offset" />
          </mxGeometry>
        </mxCell>
        <mxCell id="4BBNZKaEhTjfxijUrDNG-16" value="" style="endArrow=none;html=1;rounded=0;" edge="1" parent="1" target="jw1D5i-bptpZqYjqfrqc-12">
          <mxGeometry width="50" height="50" relative="1" as="geometry">
            <mxPoint x="556" y="666" as="sourcePoint" />
            <mxPoint x="1105" y="666" as="targetPoint" />
            <Array as="points" />
          </mxGeometry>
        </mxCell>
        <mxCell id="4BBNZKaEhTjfxijUrDNG-17" value="&lt;font style=&quot;font-size: 14px;&quot;&gt;opType为add/update，根据&lt;br&gt;skuCode查询数据是否存在&lt;/font&gt;" style="edgeLabel;html=1;align=center;verticalAlign=middle;resizable=0;points=[];" vertex="1" connectable="0" parent="4BBNZKaEhTjfxijUrDNG-16">
          <mxGeometry x="-0.6831" y="-1" relative="1" as="geometry">
            <mxPoint x="90" y="-14" as="offset" />
          </mxGeometry>
        </mxCell>
        <mxCell id="4BBNZKaEhTjfxijUrDNG-18" value="" style="endArrow=classic;html=1;rounded=0;edgeStyle=orthogonalEdgeStyle;" edge="1" parent="1">
          <mxGeometry width="50" height="50" relative="1" as="geometry">
            <mxPoint x="557" y="735" as="sourcePoint" />
            <mxPoint x="555" y="782" as="targetPoint" />
            <Array as="points">
              <mxPoint x="557" y="735" />
              <mxPoint x="604" y="735" />
              <mxPoint x="604" y="782" />
            </Array>
          </mxGeometry>
        </mxCell>
        <mxCell id="4BBNZKaEhTjfxijUrDNG-19" value="&lt;font style=&quot;font-size: 14px;&quot;&gt;根据结果判断&lt;br&gt;是新增还是修改数据&lt;/font&gt;" style="edgeLabel;html=1;align=center;verticalAlign=middle;resizable=0;points=[];" vertex="1" connectable="0" parent="4BBNZKaEhTjfxijUrDNG-18">
          <mxGeometry x="0.3788" y="1" relative="1" as="geometry">
            <mxPoint x="48" y="-26" as="offset" />
          </mxGeometry>
        </mxCell>
        <mxCell id="4BBNZKaEhTjfxijUrDNG-21" value="" style="endArrow=classic;html=1;rounded=0;" edge="1" parent="1">
          <mxGeometry width="50" height="50" relative="1" as="geometry">
            <mxPoint x="552" y="809" as="sourcePoint" />
            <mxPoint x="1104" y="811" as="targetPoint" />
          </mxGeometry>
        </mxCell>
        <mxCell id="4BBNZKaEhTjfxijUrDNG-22" value="&lt;font style=&quot;font-size: 14px;&quot;&gt;操作数据库&lt;/font&gt;" style="edgeLabel;html=1;align=center;verticalAlign=middle;resizable=0;points=[];" vertex="1" connectable="0" parent="4BBNZKaEhTjfxijUrDNG-21">
          <mxGeometry x="-0.1341" y="2" relative="1" as="geometry">
            <mxPoint as="offset" />
          </mxGeometry>
        </mxCell>
      </root>
    </mxGraphModel>
  </diagram>
  <diagram id="VtKlL0WCUns5X4JokIXI" name="第 2 页">
    <mxGraphModel dx="1402" dy="764" grid="0" gridSize="10" guides="1" tooltips="1" connect="1" arrows="1" fold="1" page="0" pageScale="1" pageWidth="2500" pageHeight="1600" math="0" shadow="0">
      <root>
        <mxCell id="0" />
        <mxCell id="1" parent="0" />
        <mxCell id="gQIAnr2j4avc485dqjna-1" value="&lt;span style=&quot;font-size: 14px;&quot;&gt;中台&lt;br&gt;rocketMQ&lt;br&gt;&lt;/span&gt;" style="shape=umlLifeline;perimeter=lifelinePerimeter;whiteSpace=wrap;html=1;container=0;dropTarget=0;collapsible=0;recursiveResize=0;outlineConnect=0;portConstraint=eastwest;newEdgeStyle={&quot;edgeStyle&quot;:&quot;elbowEdgeStyle&quot;,&quot;elbow&quot;:&quot;vertical&quot;,&quot;curved&quot;:0,&quot;rounded&quot;:0};fillColor=#b1ddf0;strokeColor=#10739e;" vertex="1" parent="1">
          <mxGeometry x="170" y="150" width="100" height="1010" as="geometry" />
        </mxCell>
        <mxCell id="gQIAnr2j4avc485dqjna-2" value="" style="html=1;points=[];perimeter=orthogonalPerimeter;outlineConnect=0;targetShapes=umlLifeline;portConstraint=eastwest;newEdgeStyle={&quot;edgeStyle&quot;:&quot;elbowEdgeStyle&quot;,&quot;elbow&quot;:&quot;vertical&quot;,&quot;curved&quot;:0,&quot;rounded&quot;:0};fillColor=#b1ddf0;strokeColor=#10739e;" vertex="1" parent="gQIAnr2j4avc485dqjna-1">
          <mxGeometry x="36" y="70" width="28" height="80" as="geometry" />
        </mxCell>
        <mxCell id="gQIAnr2j4avc485dqjna-3" value="&lt;font style=&quot;font-size: 14px;&quot;&gt;Redis&lt;/font&gt;" style="shape=umlLifeline;perimeter=lifelinePerimeter;whiteSpace=wrap;html=1;container=0;dropTarget=0;collapsible=0;recursiveResize=0;outlineConnect=0;portConstraint=eastwest;newEdgeStyle={&quot;edgeStyle&quot;:&quot;elbowEdgeStyle&quot;,&quot;elbow&quot;:&quot;vertical&quot;,&quot;curved&quot;:0,&quot;rounded&quot;:0};fillColor=#fad9d5;strokeColor=#ae4132;" vertex="1" parent="1">
          <mxGeometry x="571" y="150" width="100" height="1010" as="geometry" />
        </mxCell>
        <mxCell id="gQIAnr2j4avc485dqjna-4" value="" style="html=1;points=[];perimeter=orthogonalPerimeter;outlineConnect=0;targetShapes=umlLifeline;portConstraint=eastwest;newEdgeStyle={&quot;edgeStyle&quot;:&quot;elbowEdgeStyle&quot;,&quot;elbow&quot;:&quot;vertical&quot;,&quot;curved&quot;:0,&quot;rounded&quot;:0};fillColor=#fad9d5;strokeColor=#ae4132;" vertex="1" parent="gQIAnr2j4avc485dqjna-3">
          <mxGeometry x="35" y="180" width="32" height="80" as="geometry" />
        </mxCell>
        <mxCell id="gQIAnr2j4avc485dqjna-5" value="" style="html=1;points=[];perimeter=orthogonalPerimeter;outlineConnect=0;targetShapes=umlLifeline;portConstraint=eastwest;newEdgeStyle={&quot;edgeStyle&quot;:&quot;elbowEdgeStyle&quot;,&quot;elbow&quot;:&quot;vertical&quot;,&quot;curved&quot;:0,&quot;rounded&quot;:0};fillColor=#fad9d5;strokeColor=#ae4132;" vertex="1" parent="gQIAnr2j4avc485dqjna-3">
          <mxGeometry x="35" y="653" width="32" height="47" as="geometry" />
        </mxCell>
        <mxCell id="gQIAnr2j4avc485dqjna-6" value="&lt;font style=&quot;font-size: 14px;&quot;&gt;materialCategory&lt;br&gt;Serive&lt;/font&gt;" style="shape=umlLifeline;perimeter=lifelinePerimeter;whiteSpace=wrap;html=1;container=0;dropTarget=0;collapsible=0;recursiveResize=0;outlineConnect=0;portConstraint=eastwest;newEdgeStyle={&quot;edgeStyle&quot;:&quot;elbowEdgeStyle&quot;,&quot;elbow&quot;:&quot;vertical&quot;,&quot;curved&quot;:0,&quot;rounded&quot;:0};fillColor=#fad7ac;strokeColor=#b46504;" vertex="1" parent="1">
          <mxGeometry x="345" y="150" width="100" height="1010" as="geometry" />
        </mxCell>
        <mxCell id="gQIAnr2j4avc485dqjna-7" value="" style="html=1;points=[];perimeter=orthogonalPerimeter;outlineConnect=0;targetShapes=umlLifeline;portConstraint=eastwest;newEdgeStyle={&quot;edgeStyle&quot;:&quot;elbowEdgeStyle&quot;,&quot;elbow&quot;:&quot;vertical&quot;,&quot;curved&quot;:0,&quot;rounded&quot;:0};fillColor=#fad7ac;strokeColor=#b46504;" vertex="1" parent="gQIAnr2j4avc485dqjna-6">
          <mxGeometry x="32" y="70" width="32" height="647" as="geometry" />
        </mxCell>
        <mxCell id="gQIAnr2j4avc485dqjna-8" value="&lt;font style=&quot;font-size: 14px;&quot;&gt;判断返回结果&lt;/font&gt;" style="html=1;verticalAlign=bottom;endArrow=open;endSize=8;edgeStyle=orthogonalEdgeStyle;elbow=vertical;rounded=0;" edge="1" parent="gQIAnr2j4avc485dqjna-6" source="gQIAnr2j4avc485dqjna-7" target="gQIAnr2j4avc485dqjna-7">
          <mxGeometry relative="1" as="geometry">
            <mxPoint x="60" y="240" as="targetPoint" />
            <Array as="points">
              <mxPoint x="90" y="278" />
              <mxPoint x="90" y="326" />
            </Array>
            <mxPoint x="70" y="280" as="sourcePoint" />
          </mxGeometry>
        </mxCell>
        <mxCell id="gQIAnr2j4avc485dqjna-9" value="" style="endArrow=classic;html=1;rounded=0;sketch=0;fontSize=14;fontColor=#000000;elbow=vertical;edgeStyle=orthogonalEdgeStyle;" edge="1" parent="gQIAnr2j4avc485dqjna-6" source="gQIAnr2j4avc485dqjna-7" target="gQIAnr2j4avc485dqjna-7">
          <mxGeometry width="50" height="50" relative="1" as="geometry">
            <mxPoint x="110" y="550" as="sourcePoint" />
            <mxPoint x="60" y="590" as="targetPoint" />
            <Array as="points">
              <mxPoint x="110" y="539" />
              <mxPoint x="110" y="583" />
            </Array>
          </mxGeometry>
        </mxCell>
        <mxCell id="gQIAnr2j4avc485dqjna-10" value="判断返回结果" style="edgeLabel;html=1;align=center;verticalAlign=middle;resizable=0;points=[];fontSize=14;fontColor=#000000;" vertex="1" connectable="0" parent="gQIAnr2j4avc485dqjna-9">
          <mxGeometry x="-0.1061" y="-1" relative="1" as="geometry">
            <mxPoint as="offset" />
          </mxGeometry>
        </mxCell>
        <mxCell id="gQIAnr2j4avc485dqjna-11" value="&lt;font style=&quot;font-size: 14px;&quot;&gt;mysql&lt;/font&gt;" style="shape=umlLifeline;perimeter=lifelinePerimeter;whiteSpace=wrap;html=1;container=0;dropTarget=0;collapsible=0;recursiveResize=0;outlineConnect=0;portConstraint=eastwest;newEdgeStyle={&quot;edgeStyle&quot;:&quot;elbowEdgeStyle&quot;,&quot;elbow&quot;:&quot;vertical&quot;,&quot;curved&quot;:0,&quot;rounded&quot;:0};fillColor=#CC99FF;strokeColor=#9673a6;" vertex="1" parent="1">
          <mxGeometry x="936" y="150" width="100" height="1010" as="geometry" />
        </mxCell>
        <mxCell id="gQIAnr2j4avc485dqjna-12" value="" style="html=1;points=[];perimeter=orthogonalPerimeter;outlineConnect=0;targetShapes=umlLifeline;portConstraint=eastwest;newEdgeStyle={&quot;edgeStyle&quot;:&quot;elbowEdgeStyle&quot;,&quot;elbow&quot;:&quot;vertical&quot;,&quot;curved&quot;:0,&quot;rounded&quot;:0};fillColor=#e1d5e7;strokeColor=#9673a6;" vertex="1" parent="gQIAnr2j4avc485dqjna-11">
          <mxGeometry x="38" y="455" width="22" height="169" as="geometry" />
        </mxCell>
        <mxCell id="gQIAnr2j4avc485dqjna-13" value="" style="endArrow=classic;html=1;rounded=0;sketch=0;fontSize=14;fontColor=#000000;elbow=vertical;" edge="1" parent="1">
          <mxGeometry width="50" height="50" relative="1" as="geometry">
            <mxPoint x="240" y="240" as="sourcePoint" />
            <mxPoint x="376" y="240" as="targetPoint" />
            <Array as="points">
              <mxPoint x="370" y="240" />
            </Array>
          </mxGeometry>
        </mxCell>
        <mxCell id="gQIAnr2j4avc485dqjna-14" value="推送消息" style="edgeLabel;html=1;align=center;verticalAlign=middle;resizable=0;points=[];fontSize=14;fontColor=#000000;" vertex="1" connectable="0" parent="gQIAnr2j4avc485dqjna-13">
          <mxGeometry x="-0.3548" y="3" relative="1" as="geometry">
            <mxPoint as="offset" />
          </mxGeometry>
        </mxCell>
        <mxCell id="gQIAnr2j4avc485dqjna-15" value="&lt;span style=&quot;font-size: 14px;&quot;&gt;中台&lt;br&gt;查询商品接口&lt;br&gt;&lt;/span&gt;" style="shape=umlLifeline;perimeter=lifelinePerimeter;whiteSpace=wrap;html=1;container=0;dropTarget=0;collapsible=0;recursiveResize=0;outlineConnect=0;portConstraint=eastwest;newEdgeStyle={&quot;edgeStyle&quot;:&quot;elbowEdgeStyle&quot;,&quot;elbow&quot;:&quot;vertical&quot;,&quot;curved&quot;:0,&quot;rounded&quot;:0};fillColor=#b1ddf0;strokeColor=#10739e;" vertex="1" parent="1">
          <mxGeometry x="757" y="150" width="100" height="1010" as="geometry" />
        </mxCell>
        <mxCell id="gQIAnr2j4avc485dqjna-16" value="" style="html=1;points=[];perimeter=orthogonalPerimeter;outlineConnect=0;targetShapes=umlLifeline;portConstraint=eastwest;newEdgeStyle={&quot;edgeStyle&quot;:&quot;elbowEdgeStyle&quot;,&quot;elbow&quot;:&quot;vertical&quot;,&quot;curved&quot;:0,&quot;rounded&quot;:0};fillColor=#b1ddf0;strokeColor=#10739e;" vertex="1" parent="gQIAnr2j4avc485dqjna-15">
          <mxGeometry x="36" y="348" width="28" height="82" as="geometry" />
        </mxCell>
        <mxCell id="gQIAnr2j4avc485dqjna-19" value="" style="endArrow=classic;html=1;rounded=0;sketch=0;fontSize=14;fontColor=#000000;elbow=vertical;" edge="1" parent="1" target="gQIAnr2j4avc485dqjna-4">
          <mxGeometry width="50" height="50" relative="1" as="geometry">
            <mxPoint x="410" y="352" as="sourcePoint" />
            <mxPoint x="730" y="350" as="targetPoint" />
          </mxGeometry>
        </mxCell>
        <mxCell id="gQIAnr2j4avc485dqjna-20" value="查询是否处理过" style="edgeLabel;html=1;align=center;verticalAlign=middle;resizable=0;points=[];fontSize=14;fontColor=#000000;" vertex="1" connectable="0" parent="gQIAnr2j4avc485dqjna-19">
          <mxGeometry x="-0.3478" y="-3" relative="1" as="geometry">
            <mxPoint as="offset" />
          </mxGeometry>
        </mxCell>
        <mxCell id="gQIAnr2j4avc485dqjna-21" value="" style="endArrow=classic;html=1;rounded=0;sketch=0;fontSize=14;fontColor=#000000;elbow=vertical;" edge="1" parent="1">
          <mxGeometry width="50" height="50" relative="1" as="geometry">
            <mxPoint x="411" y="519" as="sourcePoint" />
            <mxPoint x="795" y="519" as="targetPoint" />
            <Array as="points">
              <mxPoint x="512" y="519" />
            </Array>
          </mxGeometry>
        </mxCell>
        <mxCell id="gQIAnr2j4avc485dqjna-22" value="根据uniqueId查询接口" style="edgeLabel;html=1;align=center;verticalAlign=middle;resizable=0;points=[];fontSize=14;fontColor=#000000;" vertex="1" connectable="0" parent="gQIAnr2j4avc485dqjna-21">
          <mxGeometry x="-0.1429" y="-3" relative="1" as="geometry">
            <mxPoint as="offset" />
          </mxGeometry>
        </mxCell>
        <mxCell id="gQIAnr2j4avc485dqjna-23" value="" style="endArrow=classic;html=1;rounded=0;sketch=0;fontSize=14;fontColor=#000000;elbow=vertical;dashed=1;" edge="1" parent="1">
          <mxGeometry width="50" height="50" relative="1" as="geometry">
            <mxPoint x="790" y="560" as="sourcePoint" />
            <mxPoint x="411" y="560" as="targetPoint" />
            <Array as="points">
              <mxPoint x="621" y="560" />
            </Array>
          </mxGeometry>
        </mxCell>
        <mxCell id="gQIAnr2j4avc485dqjna-24" value="返回查询结果" style="edgeLabel;html=1;align=center;verticalAlign=middle;resizable=0;points=[];fontSize=14;fontColor=#000000;" vertex="1" connectable="0" parent="gQIAnr2j4avc485dqjna-23">
          <mxGeometry x="0.4478" y="2" relative="1" as="geometry">
            <mxPoint as="offset" />
          </mxGeometry>
        </mxCell>
        <mxCell id="gQIAnr2j4avc485dqjna-25" value="" style="endArrow=classic;html=1;rounded=0;sketch=0;fontSize=14;fontColor=#000000;elbow=vertical;" edge="1" parent="1">
          <mxGeometry width="50" height="50" relative="1" as="geometry">
            <mxPoint x="410" y="622" as="sourcePoint" />
            <mxPoint x="976" y="622" as="targetPoint" />
          </mxGeometry>
        </mxCell>
        <mxCell id="gQIAnr2j4avc485dqjna-26" value="获取到skuCode查询数据是否存在" style="edgeLabel;html=1;align=center;verticalAlign=middle;resizable=0;points=[];fontSize=14;fontColor=#000000;" vertex="1" connectable="0" parent="gQIAnr2j4avc485dqjna-25">
          <mxGeometry x="-0.1429" y="-3" relative="1" as="geometry">
            <mxPoint x="2" y="-12" as="offset" />
          </mxGeometry>
        </mxCell>
        <mxCell id="gQIAnr2j4avc485dqjna-27" value="" style="endArrow=classic;html=1;rounded=0;sketch=0;fontSize=14;fontColor=#000000;elbow=vertical;dashed=1;" edge="1" parent="1">
          <mxGeometry width="50" height="50" relative="1" as="geometry">
            <mxPoint x="971" y="656" as="sourcePoint" />
            <mxPoint x="409" y="658" as="targetPoint" />
            <Array as="points">
              <mxPoint x="707" y="656" />
            </Array>
          </mxGeometry>
        </mxCell>
        <mxCell id="gQIAnr2j4avc485dqjna-28" value="返回查询结果" style="edgeLabel;html=1;align=center;verticalAlign=middle;resizable=0;points=[];fontSize=14;fontColor=#000000;" vertex="1" connectable="0" parent="gQIAnr2j4avc485dqjna-27">
          <mxGeometry x="0.4478" y="2" relative="1" as="geometry">
            <mxPoint as="offset" />
          </mxGeometry>
        </mxCell>
        <mxCell id="gQIAnr2j4avc485dqjna-29" value="" style="endArrow=classic;html=1;rounded=0;sketch=0;fontSize=14;fontColor=#000000;elbow=vertical;" edge="1" parent="1">
          <mxGeometry width="50" height="50" relative="1" as="geometry">
            <mxPoint x="409" y="756" as="sourcePoint" />
            <mxPoint x="973" y="754" as="targetPoint" />
          </mxGeometry>
        </mxCell>
        <mxCell id="gQIAnr2j4avc485dqjna-30" value="写入数据库" style="edgeLabel;html=1;align=center;verticalAlign=middle;resizable=0;points=[];fontSize=14;fontColor=#000000;" vertex="1" connectable="0" parent="gQIAnr2j4avc485dqjna-29">
          <mxGeometry x="-0.1429" y="-3" relative="1" as="geometry">
            <mxPoint as="offset" />
          </mxGeometry>
        </mxCell>
        <mxCell id="gQIAnr2j4avc485dqjna-31" value="" style="endArrow=classic;html=1;rounded=0;sketch=0;fontSize=14;fontColor=#000000;elbow=vertical;" edge="1" parent="1">
          <mxGeometry width="50" height="50" relative="1" as="geometry">
            <mxPoint x="411" y="810" as="sourcePoint" />
            <mxPoint x="603" y="810" as="targetPoint" />
          </mxGeometry>
        </mxCell>
        <mxCell id="gQIAnr2j4avc485dqjna-32" value="设置标记" style="edgeLabel;html=1;align=center;verticalAlign=middle;resizable=0;points=[];fontSize=14;fontColor=#000000;" vertex="1" connectable="0" parent="gQIAnr2j4avc485dqjna-31">
          <mxGeometry x="-0.3478" y="-3" relative="1" as="geometry">
            <mxPoint x="6" as="offset" />
          </mxGeometry>
        </mxCell>
        <mxCell id="gQIAnr2j4avc485dqjna-33" value="" style="endArrow=classic;html=1;rounded=0;sketch=0;fontSize=14;fontColor=#000000;elbow=vertical;dashed=1;" edge="1" parent="1">
          <mxGeometry width="50" height="50" relative="1" as="geometry">
            <mxPoint x="606" y="390" as="sourcePoint" />
            <mxPoint x="407" y="390" as="targetPoint" />
            <Array as="points" />
          </mxGeometry>
        </mxCell>
        <mxCell id="gQIAnr2j4avc485dqjna-34" value="返回结果" style="edgeLabel;html=1;align=center;verticalAlign=middle;resizable=0;points=[];fontSize=14;fontColor=#000000;" vertex="1" connectable="0" parent="gQIAnr2j4avc485dqjna-33">
          <mxGeometry x="0.2" y="4" relative="1" as="geometry">
            <mxPoint as="offset" />
          </mxGeometry>
        </mxCell>
        <mxCell id="fHlti-_ENbodgNxVJLKv-1" value="" style="endArrow=classic;html=1;rounded=0;dashed=1;sketch=0;fontSize=14;fontColor=#000000;elbow=vertical;edgeStyle=orthogonalEdgeStyle;" edge="1" parent="1" source="gQIAnr2j4avc485dqjna-7">
          <mxGeometry width="50" height="50" relative="1" as="geometry">
            <mxPoint x="493" y="216" as="sourcePoint" />
            <mxPoint x="409" y="323" as="targetPoint" />
            <Array as="points">
              <mxPoint x="439" y="270" />
              <mxPoint x="439" y="323" />
            </Array>
          </mxGeometry>
        </mxCell>
        <mxCell id="fHlti-_ENbodgNxVJLKv-2" value="接收并&lt;br&gt;解析消息" style="edgeLabel;html=1;align=center;verticalAlign=middle;resizable=0;points=[];fontSize=14;fontColor=#000000;" vertex="1" connectable="0" parent="fHlti-_ENbodgNxVJLKv-1">
          <mxGeometry x="-0.3274" y="1" relative="1" as="geometry">
            <mxPoint y="19" as="offset" />
          </mxGeometry>
        </mxCell>
      </root>
    </mxGraphModel>
  </diagram>
</mxfile>
